<svg xmlns="http://www.w3.org/2000/svg" width="23.675" height="22.062" viewBox="0 0 23.675 22.062"><defs><style>.a{fill:none;stroke:#747474;stroke-linecap:round;stroke-linejoin:round;stroke-miterlimit:10;stroke-width:2px;}</style></defs><g transform="translate(1 0.553)"><path class="a" d="M1.044,5.108l3.623-4A2.422,2.422,0,0,0,1.044.787C-1.044,2.507,1.044,5.108,1.044,5.108Z" transform="translate(4.801 0.699)"/><path class="a" d="M3.976,1.092A2.55,2.55,0,0,0,1.753,0C.158,0,0,1.991,0,2.8V7.85" transform="translate(1.772 0.447)"/><rect class="a" width="21.675" height="3.161" rx="1.58" transform="translate(0 8.67)"/><path class="a" d="M0,0H18.966a0,0,0,0,1,0,0V0a6.773,6.773,0,0,1-6.773,6.773H6.773A6.773,6.773,0,0,1,0,0V0A0,0,0,0,1,0,0Z" transform="translate(1.355 11.741)"/><path class="a" d="M.226,1.58,1.806,0" transform="translate(3.161 18.514)"/><path class="a" d="M-.226,1.58-1.806,0" transform="translate(16.708 18.514)"/></g></svg>