<svg xmlns="http://www.w3.org/2000/svg" width="23.848" height="21.177" viewBox="0 0 23.848 21.177"><defs><style>.a{fill:none;stroke:#747474;stroke-linecap:round;stroke-linejoin:round;stroke-miterlimit:10;stroke-width:2px;}</style></defs><g transform="translate(1 0.838)"><path class="a" d="M0,9.41V4A4,4,0,0,1,4,0H16.848a5,5,0,0,1,5,5V8.785" transform="translate(0 9.929)"/><path class="a" d="M.236.709H21.6" transform="translate(0 13.712)"/><path class="a" d="M.226.741H16.971" transform="translate(1.891 5.185)"/><path class="a" d="M.709.236V8.274" transform="translate(1.418 1.418)"/><path class="a" d="M.709.236V8.274" transform="translate(18.645 1.418)"/><path class="a" d="M16.745,5.1A9.522,9.522,0,0,0,8.392,0,9.527,9.527,0,0,0,0,5.174" transform="translate(2.344 0.162)"/></g></svg>