<svg xmlns="http://www.w3.org/2000/svg" width="11.775" height="14.326" viewBox="0 0 11.775 14.326"><defs><style>.a{fill:none;stroke:#000;stroke-width:2px;}</style></defs><g transform="translate(0 1)"><path d="M8.775,9.634H3a3,3,0,0,1-3-3V3A3,3,0,0,1,3,0H8.775a3,3,0,0,1,3,3V6.634A3,3,0,0,1,8.775,9.634ZM5.888,2.877a1.164,1.164,0,0,0-.776,2.031V5.981a.776.776,0,0,0,1.552,0V4.909a1.164,1.164,0,0,0-.776-2.031Z" transform="translate(0 3.692)"/><path class="a" d="M0,5.953v0L0,3.01a3.011,3.011,0,0,1,6.021,0V5.949a3.391,3.391,0,0,0-2.258-.861H2.26A3.381,3.381,0,0,0,0,5.951Z" transform="translate(2.875 0)"/></g></svg>