<svg xmlns="http://www.w3.org/2000/svg" width="21.382" height="18.868" viewBox="0 0 21.382 18.868"><defs><style>.a{fill:none;stroke:#000;stroke-linecap:round;stroke-miterlimit:10;stroke-width:1.5px;}</style></defs><g transform="translate(0.765 0.757)"><path class="a" d="M0,2.478A6.7,6.7,0,0,0-5.372.017a4.688,4.688,0,0,0-4.248,3.2,7.024,7.024,0,0,0,.312,4.837C-8.377,10.419-4.33,14.1,0,17.068" transform="translate(9.926)"/><path class="a" d="M0,2.478A6.7,6.7,0,0,1,5.372.017a4.688,4.688,0,0,1,4.248,3.2,7.024,7.024,0,0,1-.312,4.837C8.377,10.419,4.33,14.1,0,17.068" transform="translate(9.926)"/></g></svg>