<svg xmlns="http://www.w3.org/2000/svg" width="16.104" height="16.263" viewBox="0 0 16.104 16.263"><defs><style>.a{stroke:#000;stroke-linecap:round;stroke-linejoin:round;stroke-width:0.5px;}</style></defs><g transform="translate(0 0.262)"><path d="M8942.1-4747.272a7.566,7.566,0,0,1-5.2-5.238,2.372,2.372,0,0,0,1.087-2.733c-.373-1.47-.787-2.526-1.531-2.9a2.108,2.108,0,0,0-2.237.6c-.548.532-1.2.766-1.139,1.864a12.248,12.248,0,0,0,3.376,8.406c3.3,3.4,7.893,4.1,9.094,3.814s1.428-.953,1.9-1.491a1.685,1.685,0,0,0,.124-2.174c-.579-.683-.745-.538-2.588-1.18A2.511,2.511,0,0,0,8942.1-4747.272Z" transform="translate(-8933.078 4759.399)"/><path class="a" d="M8997.5-4717.9v-1.008a1.929,1.929,0,0,1,1.434.621,1.891,1.891,0,0,1,.526,1.386h-.972a1.191,1.191,0,0,0-.287-.7A1.01,1.01,0,0,0,8997.5-4717.9Z" transform="translate(-8989.578 4724.872)"/><path class="a" d="M8997.5-4742.632v-1.168a5.266,5.266,0,0,1,3.564,1.545,5.1,5.1,0,0,1,1.415,3.567h-1.085a4.669,4.669,0,0,0-1.252-3.006A3.869,3.869,0,0,0,8997.5-4742.632Z" transform="translate(-8989.578 4746.699)"/><path class="a" d="M8997.5-4766.355v-1.014a7.6,7.6,0,0,1,5.859,2.629c2.424,2.857,2.01,5.362,2.01,5.362h-.933a7.224,7.224,0,0,0-2.153-5.052A6.619,6.619,0,0,0,8997.5-4766.355Z" transform="translate(-8989.578 4767.374)"/></g></svg>